<svg width="28" height="28" viewBox="0 0 28 28" fill="none" xmlns="http://www.w3.org/2000/svg">
<path d="M16.4745 12.2267C16.2557 12.0079 15.959 11.8851 15.6496 11.8851C15.3403 11.8851 15.0436 12.0079 14.8248 12.2267L14 13.0503C13.7847 13.2732 13.5273 13.4509 13.2426 13.5732C12.9579 13.6955 12.6517 13.7599 12.3419 13.7626C12.0321 13.7653 11.7248 13.7062 11.4381 13.5889C11.1513 13.4716 10.8908 13.2983 10.6717 13.0793C10.4526 12.8602 10.2794 12.5996 10.1621 12.3129C10.0447 12.0261 9.98569 11.7189 9.98839 11.4091C9.99108 11.0992 10.0554 10.7931 10.1777 10.5084C10.3 10.2237 10.4778 9.96624 10.7006 9.751L17.269 3.18033C18.8241 2.82663 20.4511 2.97219 21.9187 3.59633C23.3862 4.22047 24.6197 5.29141 25.4437 6.65687C26.2676 8.02233 26.6401 9.6128 26.5082 11.2021C26.3763 12.7915 25.7466 14.2987 24.7088 15.5097L22.2495 18.0005L16.4745 12.2255V12.2267ZM3.68781 5.21266C4.89503 4.0056 6.47406 3.24097 8.16963 3.04239C9.86519 2.84381 11.5782 3.22288 13.0316 4.11833L9.04981 8.10133C8.1874 8.96201 7.69581 10.1258 7.68007 11.3442C7.66432 12.5625 8.12568 13.7386 8.96555 14.6213C9.80542 15.504 10.9572 16.0232 12.1748 16.068C13.3924 16.1128 14.5792 15.6796 15.4816 14.861L15.6496 14.7012L20.5998 19.6502L15.6496 24.6003C15.2121 25.0378 14.6187 25.2835 14 25.2835C13.3813 25.2835 12.7879 25.0378 12.3503 24.6003L3.68664 15.9367C2.26463 14.5145 1.46576 12.5858 1.46576 10.5747C1.46576 8.56355 2.26463 6.6348 3.68664 5.21266H3.68781Z" fill="#8EB699"/>
</svg>
