<svg width="155" height="66" viewBox="0 0 155 66" fill="none" xmlns="http://www.w3.org/2000/svg">
<path d="M89.7948 46.5388L95.5085 42.2045C96.2766 41.6291 97.1803 41.288 98.11 41.2225C99.0396 41.157 99.9551 41.3699 100.745 41.8355L106.206 45.0943C107.003 45.5762 107.632 46.2969 108.014 47.1655C108.396 48.0342 108.514 49.0118 108.353 49.9753L106.385 61.1548C106.265 61.8087 106.018 62.437 105.66 63.0018C105.302 63.5666 104.84 64.0562 104.301 64.4413C103.763 64.8263 103.159 65.0987 102.526 65.2421C101.894 65.3855 101.246 65.397 100.621 65.2758C59.8202 56.8579 57.8678 19.4748 58.7327 5.39259C58.7794 4.70165 58.9675 4.02189 59.2845 3.39804C59.6016 2.77419 60.0405 2.22039 60.5723 1.77306C61.104 1.32574 61.7167 0.995031 62.37 0.802698C63.0232 0.610365 63.7022 0.560765 64.3623 0.657161L74.782 2.11075C75.7113 2.24331 76.5678 2.66104 77.2413 3.3102C77.9148 3.95935 78.3746 4.81026 78.5614 5.75346L79.8386 12.1855C80.0296 13.1126 79.948 14.0898 79.6039 14.9952C79.2598 15.9005 78.6685 16.6938 77.9039 17.276L72.1901 21.6103C72.1901 21.6103 71.5378 41.5178 89.7948 46.5388Z" fill="#8EB699"/>
<path d="M112.778 38.59C112.858 38.75 112.898 38.92 112.898 39.1C112.898 39.4 112.778 39.65 112.538 39.85C112.318 40.05 112.048 40.15 111.728 40.15C111.228 40.15 110.878 39.91 110.678 39.43L108.548 34.57H97.2384L95.0784 39.43C94.8784 39.91 94.5284 40.15 94.0284 40.15C93.7084 40.15 93.4284 40.05 93.1884 39.85C92.9484 39.63 92.8284 39.37 92.8284 39.07C92.8284 38.91 92.8684 38.75 92.9484 38.59L101.528 19.51C101.648 19.23 101.828 19.02 102.068 18.88C102.308 18.74 102.568 18.67 102.848 18.67C103.148 18.67 103.418 18.75 103.658 18.91C103.898 19.05 104.078 19.25 104.198 19.51L112.778 38.59ZM98.1384 32.53H107.648L102.878 21.76L98.1384 32.53ZM117.565 40C117.225 40 116.935 39.9 116.695 39.7C116.475 39.48 116.365 39.2 116.365 38.86V19.96C116.365 19.58 116.475 19.28 116.695 19.06C116.915 18.82 117.215 18.7 117.595 18.7C117.975 18.7 118.275 18.82 118.495 19.06C118.715 19.28 118.825 19.58 118.825 19.96V37.9H128.515C128.875 37.9 129.155 37.99 129.355 38.17C129.555 38.35 129.655 38.61 129.655 38.95C129.655 39.29 129.555 39.55 129.355 39.73C129.155 39.91 128.875 40 128.515 40H117.565ZM133.766 40C133.426 40 133.136 39.9 132.896 39.7C132.676 39.48 132.566 39.2 132.566 38.86V19.96C132.566 19.58 132.676 19.28 132.896 19.06C133.116 18.82 133.416 18.7 133.796 18.7C134.176 18.7 134.476 18.82 134.696 19.06C134.916 19.28 135.026 19.58 135.026 19.96V37.9H144.716C145.076 37.9 145.356 37.99 145.556 38.17C145.756 38.35 145.856 38.61 145.856 38.95C145.856 39.29 145.756 39.55 145.556 39.73C145.356 39.91 145.076 40 144.716 40H133.766Z" fill="#8EB699"/>
<path d="M20.7384 40C20.3984 40 20.1084 39.9 19.8684 39.7C19.6484 39.48 19.5384 39.2 19.5384 38.86V19.96C19.5384 19.58 19.6484 19.28 19.8684 19.06C20.0884 18.82 20.3884 18.7 20.7684 18.7C21.1484 18.7 21.4484 18.82 21.6684 19.06C21.8884 19.28 21.9984 19.58 21.9984 19.96V37.9H31.6884C32.0484 37.9 32.3284 37.99 32.5284 38.17C32.7284 38.35 32.8284 38.61 32.8284 38.95C32.8284 39.29 32.7284 39.55 32.5284 39.73C32.3284 39.91 32.0484 40 31.6884 40H20.7384ZM43.5055 40.24C41.5455 40.24 39.8355 39.8 38.3755 38.92C36.9355 38.04 35.8255 36.79 35.0455 35.17C34.2655 33.55 33.8755 31.64 33.8755 29.44C33.8755 27.22 34.2555 25.3 35.0155 23.68C35.7955 22.04 36.9055 20.79 38.3455 19.93C39.8055 19.05 41.5255 18.61 43.5055 18.61C45.4855 18.61 47.1955 19.05 48.6355 19.93C50.0955 20.79 51.2055 22.04 51.9655 23.68C52.7455 25.3 53.1355 27.21 53.1355 29.41C53.1355 31.61 52.7455 33.53 51.9655 35.17C51.1855 36.79 50.0655 38.04 48.6055 38.92C47.1655 39.8 45.4655 40.24 43.5055 40.24ZM43.5055 38.14C45.7455 38.14 47.4855 37.39 48.7255 35.89C49.9855 34.37 50.6155 32.21 50.6155 29.41C50.6155 26.61 49.9955 24.46 48.7555 22.96C47.5155 21.46 45.7655 20.71 43.5055 20.71C41.2655 20.71 39.5155 21.47 38.2555 22.99C37.0155 24.49 36.3955 26.63 36.3955 29.41C36.3955 32.19 37.0155 34.34 38.2555 35.86C39.5155 37.38 41.2655 38.14 43.5055 38.14Z" fill="#8EB699"/>
</svg>