<svg width="24" height="23" viewBox="0 0 24 23" fill="none" xmlns="http://www.w3.org/2000/svg">
<path d="M19.3333 16.7917C17.875 16.7917 16.475 16.575 15.1683 16.1742C15.0517 16.1417 14.9233 16.12 14.8067 16.12C14.5033 16.12 14.2117 16.25 13.9783 16.4342L11.4117 18.8175C8.10288 17.2545 5.41163 14.7592 3.72333 11.6892L6.29 9.295C6.61667 9.0025 6.71 8.58 6.58167 8.20083C6.13909 6.95289 5.91458 5.6472 5.91667 4.33333C5.91667 3.7375 5.39167 3.25 4.75 3.25H0.666667C0.025 3.25 -0.5 3.7375 -0.5 4.33333C-0.5 14.5058 8.37833 22.75 19.3333 22.75C19.975 22.75 20.5 22.2625 20.5 21.6667V17.875C20.5 17.2792 19.975 16.7917 19.3333 16.7917ZM1.86833 5.41667H3.61833C3.7 6.37 3.875 7.3125 4.16667 8.2225L2.755 9.53333C2.27667 8.2225 1.97333 6.84667 1.86833 5.41667ZM18.1667 20.5508C16.6267 20.4533 15.1333 20.1717 13.7333 19.7275L15.1333 18.4167C16.125 18.6875 17.14 18.85 18.1667 18.915V20.5508ZM10 3.25V14.0833L13.5 10.8333H20.5V3.25H10ZM18.1667 8.66667H12.3333V5.41667H18.1667V8.66667Z" fill="#8EB699"/>
</svg>
