<svg width="69" height="33" viewBox="0 0 69 33" fill="none" xmlns="http://www.w3.org/2000/svg">
<path d="M39.9732 23.2694L42.5167 21.1023C42.8586 20.8146 43.2609 20.644 43.6748 20.6112C44.0886 20.5785 44.4962 20.685 44.848 20.9178L47.2788 22.5471C47.6334 22.7881 47.9134 23.1485 48.0835 23.5828C48.2535 24.0171 48.3061 24.5059 48.2345 24.9877L47.3586 30.5774C47.3051 30.9043 47.1953 31.2185 47.0359 31.5009C46.8765 31.7833 46.6707 32.0281 46.4309 32.2206C46.1912 32.4131 45.9224 32.5493 45.6408 32.6211C45.3592 32.6928 45.0707 32.6985 44.7924 32.6379C26.6297 28.4289 25.7605 9.7374 26.1456 2.6963C26.1663 2.35082 26.2501 2.01095 26.3912 1.69902C26.5323 1.3871 26.7277 1.11019 26.9644 0.886531C27.2012 0.662869 27.4739 0.497515 27.7647 0.401349C28.0555 0.305182 28.3578 0.280382 28.6516 0.32858L33.2901 1.05537C33.7038 1.12166 34.085 1.33052 34.3849 1.6551C34.6847 1.97968 34.8893 2.40513 34.9725 2.87673L35.5411 6.09274C35.6261 6.55628 35.5898 7.04491 35.4366 7.49758C35.2834 7.95026 35.0202 8.34692 34.6798 8.638L32.1363 10.8051C32.1363 10.8051 31.8459 20.7589 39.9732 23.2694Z" fill="white"/>
<path d="M49.4416 21.201C49.4869 21.2917 49.5096 21.388 49.5096 21.49C49.5096 21.66 49.4416 21.8017 49.3056 21.915C49.1809 22.0283 49.0279 22.085 48.8466 22.085C48.5632 22.085 48.3649 21.949 48.2516 21.677L47.0446 18.923H40.6356L39.4116 21.677C39.2982 21.949 39.0999 22.085 38.8166 22.085C38.6352 22.085 38.4766 22.0283 38.3406 21.915C38.2046 21.7903 38.1366 21.643 38.1366 21.473C38.1366 21.3823 38.1592 21.2917 38.2046 21.201L43.0666 10.389C43.1346 10.2303 43.2366 10.1113 43.3726 10.032C43.5086 9.95267 43.6559 9.913 43.8146 9.913C43.9846 9.913 44.1376 9.95833 44.2736 10.049C44.4096 10.1283 44.5116 10.2417 44.5796 10.389L49.4416 21.201ZM41.1456 17.767H46.5346L43.8316 11.664L41.1456 17.767ZM52.1541 22C51.9615 22 51.7971 21.9433 51.6611 21.83C51.5365 21.7053 51.4741 21.5467 51.4741 21.354V10.644C51.4741 10.4287 51.5365 10.2587 51.6611 10.134C51.7858 9.998 51.9558 9.93 52.1711 9.93C52.3865 9.93 52.5565 9.998 52.6811 10.134C52.8058 10.2587 52.8681 10.4287 52.8681 10.644V20.81H58.3591C58.5631 20.81 58.7218 20.861 58.8351 20.963C58.9485 21.065 59.0051 21.2123 59.0051 21.405C59.0051 21.5977 58.9485 21.745 58.8351 21.847C58.7218 21.949 58.5631 22 58.3591 22H52.1541ZM61.3348 22C61.1421 22 60.9778 21.9433 60.8418 21.83C60.7171 21.7053 60.6548 21.5467 60.6548 21.354V10.644C60.6548 10.4287 60.7171 10.2587 60.8418 10.134C60.9664 9.998 61.1364 9.93 61.3518 9.93C61.5671 9.93 61.7371 9.998 61.8618 10.134C61.9864 10.2587 62.0488 10.4287 62.0488 10.644V20.81H67.5398C67.7438 20.81 67.9024 20.861 68.0158 20.963C68.1291 21.065 68.1858 21.2123 68.1858 21.405C68.1858 21.5977 68.1291 21.745 68.0158 21.847C67.9024 21.949 67.7438 22 67.5398 22H61.3348Z" fill="white"/>
<path d="M7.38459 22C7.19192 22 7.02759 21.9433 6.89159 21.83C6.76692 21.7053 6.70459 21.5467 6.70459 21.354V10.644C6.70459 10.4287 6.76692 10.2587 6.89159 10.134C7.01625 9.998 7.18625 9.93 7.40159 9.93C7.61692 9.93 7.78692 9.998 7.91159 10.134C8.03625 10.2587 8.09859 10.4287 8.09859 10.644V20.81H13.5896C13.7936 20.81 13.9523 20.861 14.0656 20.963C14.1789 21.065 14.2356 21.2123 14.2356 21.405C14.2356 21.5977 14.1789 21.745 14.0656 21.847C13.9523 21.949 13.7936 22 13.5896 22H7.38459ZM20.286 22.136C19.1753 22.136 18.2063 21.8867 17.379 21.388C16.563 20.8893 15.934 20.181 15.492 19.263C15.05 18.345 14.829 17.2627 14.829 16.016C14.829 14.758 15.0443 13.67 15.475 12.752C15.917 11.8227 16.546 11.1143 17.362 10.627C18.1893 10.1283 19.164 9.879 20.286 9.879C21.408 9.879 22.377 10.1283 23.193 10.627C24.0203 11.1143 24.6493 11.8227 25.08 12.752C25.522 13.67 25.743 14.7523 25.743 15.999C25.743 17.2457 25.522 18.3337 25.08 19.263C24.638 20.181 24.0033 20.8893 23.176 21.388C22.36 21.8867 21.3967 22.136 20.286 22.136ZM20.286 20.946C21.5553 20.946 22.5413 20.521 23.244 19.671C23.958 18.8097 24.315 17.5857 24.315 15.999C24.315 14.4123 23.9637 13.194 23.261 12.344C22.5583 11.494 21.5667 11.069 20.286 11.069C19.0167 11.069 18.025 11.4997 17.311 12.361C16.6083 13.211 16.257 14.4237 16.257 15.999C16.257 17.5743 16.6083 18.7927 17.311 19.654C18.025 20.5153 19.0167 20.946 20.286 20.946Z" fill="white"/>
</svg>
